<?xml version="1.0" encoding="UTF-8"?>
<svg id="katman_2" data-name="katman 2" xmlns="http://www.w3.org/2000/svg" viewBox="0 0 767.1 266.31">
  <defs>
    <style>
      .cls-1 {
        fill: #fff;
      }
    </style>
  </defs>
  <g id="katman_1" data-name="katman 1">
    <g>
      <path class="cls-1" d="m0,39.59C0,28.62,8.64,16.66,22.6,16.66h76.78c43.21,0,82.1,28.92,82.1,84.43,0,52.52-38.89,81.77-82.1,81.77h-55.51v43.87c0,14.62-9.31,22.93-21.27,22.93-10.97,0-22.6-8.31-22.6-22.93,0,0,0-187.14,0-187.14Zm43.87,18.95v82.76h55.51c22.27,0,39.89-19.61,39.89-40.22,0-23.27-17.62-42.54-39.89-42.54,0,0-55.51,0-55.51,0Z"/>
      <path id="pencil-icon" class="cls-1" d="m320.81,32.88l-6-2.5,4.41-10.65.53-1.28.53-1.27c2.63-6.33-.37-13.6-6.7-16.23-6.33-2.63-13.6.37-16.23,6.7h0l-.54,1.31-.52,1.27-4.42,10.66-1.49-.62h0l-2.57-1.08c-.26-.12-.52-.23-.78-.32h0c-4.15-1.55-7.86-.14-10.18,4-.56,1-1.06,2.04-1.49,3.1-4.67,11.38-9.35,22.76-14.06,34.15-3.04,7.42-6.04,14.85-9,22.3-1.07,2.67-2.33,3.13-5.13,1.67-3.1-1.63-5.49-.56-6.15,2.85-.26,1.3-.15,2.67-.32,4-.52,3.95-.37,8.18-1.78,11.8-5.26,13.54-11,26.87-16.63,40.29-3.48,8.33-6.8,16.73-10.48,25-1.68,3.84-2.29,8.05-1.79,12.21.57,6.41,1.36,12.82-.14,19.35-2.72,11.88-4.9,23.89-7.25,35.85-.94,4.77-.54,5.56,3.8,7.47,2,.87,2.55,2.2,1.8,4.13-.46,1.16-1.06,2.25-1.55,3.39-1.54,3.59-3.12,7.17-4.56,10.8-.75,1.87-.48,3.68,1.49,4.68s3.7,0,4.9-1.64c.5-.81.9-1.68,1.19-2.59,1.62-4.07,3.2-8.15,4.84-12.22.77-1.92,2.09-2.65,4.09-1.65,3.58,1.78,5.11,1.51,7.44-1.81,4.27-6.08,8.47-12.22,12.58-18.41,2.94-4.44,5.23-9.39,8.6-13.46,4.01-4.71,8.42-9.06,13.19-13,3-2.55,5.5-5.18,6.87-8.9s2.93-7.46,4.46-11.16c5.83-14.12,11.67-28.23,17.52-42.34,2.23-5.35,4.32-10.79,7.06-15.87,1.64-3,4.41-5.46,6.67-8.15,3.47-4.12,3.12-5.89-1.76-8.1-1.93-.87-2.67-2.22-2-4.11,1.29-3.47,2.71-6.9,4.16-10.31,2.83-6.66,5.76-13.28,8.57-19.94,3.82-9,7.45-18.13,11.38-27.1,2.44-5.5,1.52-9.88-2.56-12.27Zm-107.56,202.71c-.13.28-.31.53-.54.73-.44.45-1.09.66-1.71.54-.33-.07-.61-.16-.69-.35-.51-.99-.76-2.1-.71-3.22.3-2.34,1-4.63,1.43-7,.61-3.27,1.05-6.58,1.72-9.84.38-1.87.86-3.86,3.63-3.28,3.34.71,4.78,2.16,3.88,4.6-2.2,6.01-4.63,11.88-7.01,17.82h0Zm19.56-11.3c-3.27,4.79-6.45,9.63-9.72,14.41-.29.38-.62.71-1,1-.77.68-1.95.6-2.62-.17-.08-.09-.15-.19-.22-.3-.09-.13-.12-.29-.1-.45.44-1.83,1.03-3.62,1.79-5.35,1.76-4.32,3.47-8.66,5.4-12.9,1.16-2.54,2.64-2.55,5.66-.9,2.37,1.34,2.08,2.79.81,4.66h0Zm54.8-100.06c-.07.59-.21,1.18-.41,1.74-6.52,15.6-13.05,31.19-19.59,46.78-2.09,5.02-4.11,10.07-6.06,15.14-.75,1.95-1.75,2.47-3.71,1.65-9.24-3.82-18.5-7.57-27.76-11.35-3.34-1.37-6.64-2.85-10-4.11-2.21-.83-2.36-2.3-1.61-4.11,5.17-12.4,10.39-24.77,15.54-37.17,3.44-8.28,6.76-16.6,10.2-24.87,1.22-2.91,1.79-2.78,4.74-1.48,6.44,2.84,13,5.38,19.53,8,5.55,2.27,11.12,4.5,16.65,6.81.63.3,1.22.67,1.76,1.12.57.43.85,1.15.72,1.85h0Zm19.54-57.81l-.38,1v.08h0c-1.63,3.92-3.29,7.93-4.86,11.74l.1-.21c-.02.08-.05.16-.09.24-1.07,2.6-2.16,5.18-3.24,7.77l-5.69,13.73c-.4,1.19-1.69,1.82-2.88,1.42h-.11c-.34-.08-.68-.2-1-.34-.41-.18-.81-.36-1.17-.56l-9.76-4h-.1c-.77-.24-1.52-.55-2.23-.93l1.32.55-18.3-7.58c-.86-.25-1.36-1.16-1.11-2.02.03-.1.06-.19.11-.28v-.09c.08-.38.19-.75.34-1.11,3.3-7.73,6.55-15.48,9.76-23.25.82-2,1.65-4,2.49-6l3.74-9.12,34.62,14.51.12-.26.19.26c-.6,1.41-1.22,2.89-1.87,4.45Z"/>
      <path class="cls-1" d="m354.65,42.92c0-11.97,2.66-23.6,19.94-23.6,11.97,0,14.62,2.99,23.6,11.63l110.02,137.61V39.59c0-10.97,9.64-22.93,20.94-22.93,11.97,0,23.6,11.97,23.6,22.93v187.13c0,14.62-8.97,20.28-17.62,22.93-11.63,0-17.28-2.66-26.92-11.63l-110.02-139.6v128.3c0,14.62-8.97,22.93-20.94,22.93s-22.6-8.31-22.6-22.93V42.92h0Z"/>
      <path class="cls-1" d="m618.55,249.66c-11.63,0-20.61-8.97-20.61-20.61V40.26c0-11.97,8.97-20.61,20.61-20.61h119.33c30.58,0,29.91,43.21,0,43.21h-95.73v49.86h83.76c29.58,0,29.58,43.54,0,43.54h-83.76v49.86h101.38c30.25,0,32.57,43.54,0,43.54h-124.98Z"/>
    </g>
  </g>
</svg>