<svg xmlns="http://www.w3.org/2000/svg" viewBox="0 0 765.87 266.25"><g id="katman_2" data-name="katman 2"><g id="katman_1-2" data-name="katman 1"><g id="page-1"><g id="pine-logo"><g id="PINE"><path d="M0,40C0,29.08,8.6,17.18,22.5,17.18H98.91c43,0,81.71,28.78,81.71,84,0,52.27-38.7,81.38-81.71,81.38H43.67v43.67c0,14.55-9.27,22.82-21.17,22.82A22.35,22.35,0,0,1,0,226.25ZM43.67,58.86v82.37H98.91c22.17,0,39.7-19.52,39.7-40,0-23.16-17.53-42.34-39.7-42.34Z"/><path d="M321,32.86l-6-2.5,4.42-10.66.52-1.27.53-1.27a12.41,12.41,0,0,0-22.93-9.5L297,8.93l-.53,1.27L292,20.86l-1.5-.62h0l-2.6-1.08c-.26-.12-.52-.22-.77-.32h0c-4.15-1.54-7.87-.14-10.18,4a28.42,28.42,0,0,0-1.5,3.09Q268.39,43,261.38,60.08q-4.54,11.11-9,22.29c-1.06,2.68-2.33,3.14-5.13,1.67-3.1-1.62-5.48-.55-6.15,2.86-.26,1.3-.14,2.66-.32,4-.51,4-.36,8.19-1.77,11.81-5.27,13.53-11,26.87-16.64,40.28-3.47,8.33-6.79,16.73-10.48,25a23.49,23.49,0,0,0-1.79,12.2c.57,6.41,1.36,12.82-.13,19.35-2.73,11.88-4.9,23.89-7.26,35.85-.94,4.78-.53,5.56,3.8,7.47,2,.87,2.55,2.2,1.8,4.14-.45,1.15-1.06,2.24-1.55,3.38-1.54,3.6-3.12,7.17-4.56,10.81-.74,1.86-.48,3.68,1.5,4.68s3.69,0,4.9-1.65a12.47,12.47,0,0,0,1.19-2.59c1.62-4.06,3.2-8.15,4.83-12.21.78-1.93,2.1-2.66,4.1-1.66,3.57,1.79,5.1,1.51,7.44-1.81q6.41-9.12,12.57-18.41c2.94-4.44,5.23-9.38,8.6-13.45a107.21,107.21,0,0,1,13.19-13c3-2.55,5.5-5.17,6.87-8.89s2.94-7.46,4.47-11.17q8.73-21.18,17.52-42.34c2.23-5.34,4.32-10.79,7.06-15.87,1.63-3,4.4-5.45,6.67-8.14,3.46-4.13,3.12-5.89-1.77-8.1-1.92-.87-2.66-2.22-2-4.11,1.29-3.48,2.72-6.9,4.17-10.31,2.83-6.66,5.75-13.28,8.57-20,3.81-9,7.44-18.13,11.38-27.1C325.88,39.64,325,35.24,321,32.86ZM213.38,235.57a2.39,2.39,0,0,1-.55.72,1.89,1.89,0,0,1-1.71.54c-.33-.07-.61-.16-.69-.34a6.41,6.41,0,0,1-.71-3.22c.31-2.35,1-4.64,1.44-7,.61-3.27,1.05-6.57,1.71-9.83.38-1.88.86-3.87,3.64-3.28,3.34.7,4.77,2.15,3.87,4.59C218.18,223.76,215.75,229.65,213.38,235.57Zm19.55-11.3c-3.26,4.79-6.45,9.63-9.72,14.41a5.4,5.4,0,0,1-1,1,1.87,1.87,0,0,1-2.85-.47.68.68,0,0,1-.1-.46,31.06,31.06,0,0,1,1.8-5.34c1.75-4.32,3.47-8.66,5.4-12.91,1.15-2.53,2.64-2.55,5.65-.9C234.49,221,234.21,222.39,232.93,224.27Zm54.81-100.06a7.69,7.69,0,0,1-.42,1.73c-6.51,15.6-13.08,31.18-19.59,46.78q-3.14,7.53-6.06,15.15c-.74,1.95-1.75,2.46-3.71,1.65-9.23-3.83-18.5-7.57-27.75-11.36-3.34-1.37-6.65-2.84-10-4.11-2.21-.83-2.35-2.3-1.6-4.11,5.16-12.39,10.38-24.76,15.53-37.17,3.44-8.27,6.76-16.59,10.21-24.87,1.21-2.91,1.79-2.77,4.74-1.47,6.44,2.84,13,5.38,19.52,8,5.56,2.26,11.13,4.49,16.66,6.81a9.18,9.18,0,0,1,1.76,1.11A1.91,1.91,0,0,1,287.74,124.21ZM307.27,66.4l-.38.95,0,.08h0L302,79.18l.11-.21-.09.24c-1.07,2.59-2.16,5.18-3.25,7.76l-5.69,13.74a2.26,2.26,0,0,1-2.87,1.41l-.12,0a5.83,5.83,0,0,1-1-.34c-.41-.18-.81-.36-1.17-.55l-9.76-4-.1,0a13.2,13.2,0,0,1-2.23-.93l1.33.55-18.31-7.58a1.64,1.64,0,0,1-.95-2.3l0-.09a4.76,4.76,0,0,1,.34-1.11q4.94-11.6,9.75-23.26l2.49-6q1.88-4.56,3.74-9.12l34.62,14.51.13-.27.18.27Q308.25,64.05,307.27,66.4Z"/><path id="N" d="M355.88,43.56c0-11.87,2.64-23.42,19.79-23.42,11.87,0,14.51,3,23.42,11.55L508.28,168.26v-128c0-10.89,9.56-22.76,20.78-22.76,11.88,0,23.42,11.87,23.42,22.76V226c0,14.52-8.91,20.13-17.48,22.76-11.55,0-17.16-2.63-26.72-11.54L399.09,98.65V226c0,14.52-8.91,22.76-20.78,22.76S355.88,240.5,355.88,226Z"/><path d="M618.45,247.26A20.14,20.14,0,0,1,598,226.81V39.44C598,27.57,606.9,19,618.45,19H736.87c30.35,0,29.69,42.88,0,42.88h-95v49.48H725c29.36,0,29.36,43.22,0,43.22H641.87v49.48H742.48c30,0,32.33,43.21,0,43.21Z"/></g></g></g></g></g></svg>